<?xml version="1.0" encoding="utf-8"?>
<!-- Generator: Adobe Illustrator 25.3.1, SVG Export Plug-In . SVG Version: 6.00 Build 0)  -->
<svg version="1.1" id="Layer_1" xmlns="http://www.w3.org/2000/svg" xmlns:xlink="http://www.w3.org/1999/xlink" x="0px" y="0px"
	 viewBox="0 0 300 340" style="enable-background:new 0 0 300 340;" xml:space="preserve">
<style type="text/css">
	.st0{fill:#231F20;stroke:#000000;stroke-width:5.4552;stroke-miterlimit:10;}
	.st1{fill:none;stroke:#000000;stroke-width:3.6368;stroke-miterlimit:10;}
	.st2{fill:#231F20;stroke:#000000;stroke-width:3.6368;stroke-miterlimit:10;}
	.st3{fill:#FFFFFF;stroke:#000000;stroke-width:3.6368;stroke-miterlimit:10;}
	.st4{fill:#D23527;stroke:#000000;stroke-width:5.0125;stroke-miterlimit:10;}
	.st5{fill:#FFFFFF;stroke:#000000;stroke-width:2.3053;stroke-miterlimit:10;}
	.st6{fill:#231F20;stroke:#000000;stroke-width:1.8184;stroke-miterlimit:10;}
	.st7{fill:#FFFFFF;stroke:#000000;stroke-width:1.8184;stroke-miterlimit:10;}
</style>
<path class="st0" d="M244.4,327.5H57.6c-11.4,0-20.6-11.1-20.6-24.7V39.2c0-13.6,9.3-24.7,20.6-24.7h186.8
	c11.4,0,20.6,11.1,20.6,24.7v263.7C264.9,316.4,255.6,327.5,244.4,327.5z"/>
<path class="st1" d="M199.5,220.5"/>
<path class="st1" d="M214.4,184.6"/>
<path class="st1" d="M175.6,224.2"/>
<ellipse class="st2" cx="148.6" cy="171" rx="19.6" ry="23.3"/>
<ellipse class="st3" cx="148.6" cy="171" rx="10.8" ry="12.1"/>
<path class="st4" d="M235.4,315.8H66.6c-10.4,0-18.9-10.2-18.9-22.7V47.1c0-12.5,8.5-22.7,18.9-22.7h168.7
	c10.4,0,18.9,10.2,18.9,22.7v246.1C254.3,305.5,245.8,315.8,235.4,315.8z"/>
<path class="st3" d="M208.1,137.6C191.8,104.5,165.8,97,165.8,97s-26.6-6.5-40.3,2c0,0-31.5,15.9-37.8,40.6c0,0-15.4,31.9,5.4,73.2
	s67.3,34.9,67.3,34.9l10.7-3.3c0,0,9.7,2.2,1.7,10.6c0,0-48.5,21.2-83.3-28s-6-102.5-6-102.5s28.3-50.4,78.4-40.6
	s60.2,60.7,60.2,60.7s9.1,47-6.8,69.8l-10.2,16.7c0,0-13.4,3.4-3.4-15.2c0,0,10.3-11.5,10.3-21.6c0,0,6.3-30.1,0.3-45.2L208.1,137.6
	z"/>
<g>
	<path class="st2" d="M162.9,204.9l24,61.8c0,0,6.7,16.7,18.7,12.2c12-4.5,8.6-22.4,8.6-22.4l-18.7-25l-31.5-34.1l-3.1-1.6
		L162.9,204.9z"/>
	<path class="st5" d="M176,224.6l15.3,39.1c0,0,4.2,10.6,11.7,7.9c7.6-2.9,5.5-14.3,5.5-14.3l-11.9-15.7l-20-21.6l-2-1.1L176,224.6z
		"/>
</g>
<g>
	<ellipse class="st6" cx="67.3" cy="49.1" rx="8.4" ry="9.9"/>
</g>
<ellipse class="st7" cx="67.3" cy="49.1" rx="3.7" ry="4.3"/>
<g>
	<ellipse class="st6" cx="235.4" cy="49.1" rx="8.4" ry="9.9"/>
</g>
<ellipse class="st7" cx="235.4" cy="49.1" rx="3.7" ry="4.3"/>
<g>
	<ellipse class="st6" cx="67.3" cy="291.8" rx="8.4" ry="9.9"/>
</g>
<ellipse class="st7" cx="67.3" cy="291.8" rx="3.7" ry="4.3"/>
<g>
	<ellipse class="st6" cx="235.4" cy="291.8" rx="8.4" ry="9.9"/>
</g>
<ellipse class="st7" cx="235.4" cy="291.8" rx="3.7" ry="4.3"/>
</svg>
