<?xml version="1.0" encoding="utf-8"?>
<!-- Generator: Adobe Illustrator 25.3.1, SVG Export Plug-In . SVG Version: 6.00 Build 0)  -->
<svg version="1.1" id="Layer_1" xmlns="http://www.w3.org/2000/svg" xmlns:xlink="http://www.w3.org/1999/xlink" x="0px" y="0px"
	 viewBox="0 0 700 440" style="enable-background:new 0 0 700 440;" xml:space="preserve">
<style type="text/css">
	.st0{fill:none;stroke:#000000;stroke-width:23;stroke-miterlimit:10;}
	.st1{fill:#D23727;stroke:#000000;stroke-width:1.5051;stroke-miterlimit:10;}
	.st2{fill:#D23727;stroke:#000000;stroke-width:1.5535;stroke-miterlimit:10;}
	.st3{fill:#D23727;stroke:#000000;stroke-width:1.7783;stroke-miterlimit:10;}
	.st4{fill:#D23727;stroke:#000000;stroke-width:3.4181;stroke-miterlimit:10;}
	.st5{fill:#D23727;stroke:#000000;stroke-width:1.8538;stroke-miterlimit:10;}
	.st6{fill:#D23727;stroke:#000000;stroke-width:1.4428;stroke-miterlimit:10;}
</style>
<path class="st0" d="M660.7,408.2H39.3c-8.3,0-15.2-6.8-15.2-15.2V47c0-8.3,6.8-15.2,15.2-15.2h621.4c8.3,0,15.2,6.8,15.2,15.2v346
	C675.9,401.4,669,408.2,660.7,408.2z"/>
<g>
	<rect x="49.4" y="56.7" class="st1" width="41.8" height="55.4"/>
	<rect x="110.8" y="56.7" class="st1" width="41.8" height="55.4"/>
	<rect x="171.8" y="56.7" class="st1" width="41.8" height="55.4"/>
	<rect x="232.9" y="56.7" class="st1" width="41.8" height="55.4"/>
	<rect x="292.3" y="56.7" class="st1" width="41.8" height="55.4"/>
	<rect x="354.8" y="56.7" class="st1" width="41.8" height="55.4"/>
	<rect x="416.1" y="56.7" class="st1" width="41.8" height="55.4"/>
	<rect x="477.1" y="56.7" class="st1" width="41.8" height="55.4"/>
	<rect x="202.9" y="140.3" class="st2" width="42.7" height="57.8"/>
	<rect x="138.6" y="140.3" class="st2" width="42.7" height="57.8"/>
	<rect x="265.3" y="140.3" class="st2" width="42.7" height="57.8"/>
	<rect x="325.9" y="140.3" class="st2" width="42.7" height="57.8"/>
	<rect x="389.7" y="140.3" class="st2" width="42.7" height="57.8"/>
	<rect x="452.4" y="140.3" class="st2" width="42.7" height="57.8"/>
	<rect x="355.8" y="226.3" class="st2" width="42.7" height="57.8"/>
	<rect x="419.7" y="226.3" class="st2" width="42.7" height="57.8"/>
	<rect x="482.3" y="226.3" class="st2" width="42.7" height="57.8"/>
	<rect x="164.9" y="226.3" class="st2" width="42.7" height="57.8"/>
	<rect x="228.7" y="226.3" class="st2" width="42.7" height="57.8"/>
	<rect x="291.4" y="226.3" class="st2" width="42.7" height="57.8"/>
	<rect x="514.7" y="140.3" class="st2" width="42.7" height="57.8"/>
	<rect x="538.3" y="56.7" class="st1" width="41.8" height="55.4"/>
	<rect x="597.6" y="56.7" class="st1" width="41.8" height="55.4"/>
	<path class="st2" d="M115,199.4H55.2c-3.2,0-5.8-2.6-5.8-5.8v-48.8c0-3.2,2.6-5.8,5.8-5.8H115c3.2,0,5.8,2.6,5.8,5.8v48.8
		C120.7,196.8,118.1,199.4,115,199.4z"/>
	<path class="st3" d="M140.3,284.1H56c-3.6,0-6.6-3-6.6-6.6v-44.7c0-3.6,3-6.6,6.6-6.6h84.3c3.6,0,6.6,3,6.6,6.6v44.7
		C146.9,281.2,143.9,284.1,140.3,284.1z"/>
	<path class="st3" d="M140.3,368.8H56c-3.6,0-6.6-3-6.6-6.6v-44.7c0-3.6,3-6.6,6.6-6.6h84.3c3.6,0,6.6,3,6.6,6.6v44.7
		C146.9,365.9,143.9,368.8,140.3,368.8z"/>
	<path class="st4" d="M512.3,368.8H177.5c-7,0-12.7-5.7-12.7-12.7v-32.5c0-7,5.7-12.7,12.7-12.7h334.8c7,0,12.7,5.7,12.7,12.7v32.5
		C525,363.1,519.3,368.8,512.3,368.8z"/>
	<path class="st5" d="M637.3,368.8h-92.2c-3.8,0-6.9-3.1-6.9-6.9v-44.1c0-3.8,3.1-6.9,6.9-6.9h92.2c3.8,0,6.9,3.1,6.9,6.9V362
		C644.2,365.8,641.1,368.8,637.3,368.8z"/>
	<path class="st5" d="M643.7,280.6h-92.2c-3.8,0-6.9-3.1-6.9-6.9v-44.1c0-3.8,3.1-6.9,6.9-6.9h92.2c3.8,0,6.9,3.1,6.9,6.9v44.1
		C650.6,277.5,647.5,280.6,643.7,280.6z"/>
	<path class="st6" d="M638.9,198.2h-53.5c-2.9,0-5.3-2.4-5.3-5.3v-47.2c0-2.9,2.4-5.3,5.3-5.3h53.5c2.9,0,5.3,2.4,5.3,5.3v47.2
		C644.2,195.7,641.8,198.2,638.9,198.2z"/>
</g>
</svg>
