<?xml version="1.0" encoding="utf-8"?>
<!-- Generator: Adobe Illustrator 25.3.1, SVG Export Plug-In . SVG Version: 6.00 Build 0)  -->
<svg version="1.1" id="Layer_1" xmlns="http://www.w3.org/2000/svg" xmlns:xlink="http://www.w3.org/1999/xlink" x="0px" y="0px"
	 viewBox="0 0 300 213.6" style="enable-background:new 0 0 300 213.6;" xml:space="preserve">
<style type="text/css">
	.st0{fill:#D23527;stroke:#000000;stroke-width:3.5148;stroke-miterlimit:10;}
</style>
<path class="st0" d="M210.1,65.3l-46.5,35.3c0,0,3.7-12.7,6-22.5c2.3-9.8-9.7-5.3-9.7-5.3L131,103.4c0,0-4.3-12-11.1-25.6
	s-12.5-2.4-12.5-2.4L89.5,142l-0.4,5.3l6.4,7.3c5.7,5.7,26,15.8,26,15.8c15.8,8.3,47.1,3.5,47.1,3.5c11.5-1.6,32.6-14.2,32.6-14.2
	l16.1-15.8l11.8-23.2c3.7-9.8,0-33.4,0-33.4c-3.3-17.1-9.4-3.5-9.4-3.5l1.6,9.8v22.9c-11.2,42.2-54.8,49.1-54.8,49.1
	c-18.2,5.1-41.4-2.5-41.4-2.5c-13.2-2.3-24.8-18.1-24.8-18.1l1.7-8.5L115,92.2c0,0,3,11.1,8.5,18.7c5.4,7.6,10.1,1.6,10.1,1.6
	l20.9-20l-9.1,34c1.3,12.9,11.5,0.3,11.5,0.3l4.3-12.9l14.1-10.2l10.7,23.9c12.8,10.8,11.8-2.3,11.8-2.3l-13.5-26.3
	c0,0,34.1-27.9,36-28.2c2.1-0.3,0-7.6,0-7.6s-14-16.4-21.7-22.4c-7.7-6-30.6-12.9-30.6-12.9s-60.9-9-83.2,33.8s-6,65.1-6,65.1
	c6,4.4,6-3.7,6-3.7c-9.7-37.1,9.1-57.4,9.1-57.4S132.2,7,196.6,51.2L210.1,65.3z"/>
</svg>
