<?xml version="1.0" encoding="utf-8"?>
<!-- Generator: Adobe Illustrator 25.3.1, SVG Export Plug-In . SVG Version: 6.00 Build 0)  -->
<svg version="1.1" id="Layer_1" xmlns="http://www.w3.org/2000/svg" xmlns:xlink="http://www.w3.org/1999/xlink" x="0px" y="0px"
	 viewBox="0 0 210 337" style="enable-background:new 0 0 210 337;" xml:space="preserve">
<style type="text/css">
	.st0{fill:#D23527;stroke:#000000;stroke-width:16.4975;stroke-miterlimit:10;}
</style>
<path class="st0" d="M105,21.5L105,21.5c48.3,0,87.5,39.6,87.5,88.5v117c0,48.9-39.2,88.5-87.5,88.5l0,0
	c-48.3,0-87.5-39.6-87.5-88.5V110C17.5,61.1,56.7,21.5,105,21.5z"/>
<path d="M105,66.5L105,66.5c9.7,0,17.5,7.8,17.5,17.5v23c0,9.7-7.8,17.5-17.5,17.5l0,0c-9.7,0-17.5-7.8-17.5-17.5V84
	C87.5,74.3,95.3,66.5,105,66.5z"/>
</svg>
