<?xml version="1.0" encoding="utf-8"?>
<!-- Generator: Adobe Illustrator 25.3.1, SVG Export Plug-In . SVG Version: 6.00 Build 0)  -->
<svg version="1.1" id="Layer_1" xmlns="http://www.w3.org/2000/svg" xmlns:xlink="http://www.w3.org/1999/xlink" x="0px" y="0px"
	 viewBox="0 0 239 299" style="enable-background:new 0 0 239 299;" xml:space="preserve">
<style type="text/css">
	.st0{fill:#D23527;stroke:#000000;stroke-width:15.9379;stroke-miterlimit:10;}
	.st1{fill:none;stroke:#000000;stroke-width:10;stroke-miterlimit:10;}
</style>
<path class="st0" d="M119.1,26.4l-94,50c-0.7,4.9-1.1,9.9-1.1,14.8v88.9c0,55.1,43,100.3,95.5,100.3l0,0
	c52.5,0,95.5-45.1,95.5-100.2V91.3c0-7.4-0.8-14.7-2.3-21.9L119.1,26.4z"/>
<path d="M91,131.3h57c6.6,0,12,5.4,12,12v30.3c0,6.6-5.4,12-12,12H91c-6.6,0-12-5.4-12-12v-30.3C79,136.7,84.4,131.3,91,131.3z"/>
<circle class="st1" cx="119.5" cy="129.2" r="29.3"/>
</svg>
